<?xml version="1.0" encoding="utf-8"?>
<!-- Generator: Adobe Illustrator 19.0.0, SVG Export Plug-In . SVG Version: 6.00 Build 0)  -->
<svg version="1.1" id="Layer_1" xmlns="http://www.w3.org/2000/svg" xmlns:xlink="http://www.w3.org/1999/xlink" x="0px" y="0px"
	 viewBox="0 0 200 200" style="enable-background:new 0 0 200 200;" xml:space="preserve">
<style type="text/css">
	.st0{fill:url(#SVGID_1_);}
	.st1{fill:url(#SVGID_2_);}
</style>
<g>
	<g>
		<linearGradient id="SVGID_1_" gradientUnits="userSpaceOnUse" x1="100" y1="190.0003" x2="100" y2="9.9997">
			<stop  offset="0" style="stop-color:#2D2E2D"/>
			<stop  offset="1" style="stop-color:#575757"/>
		</linearGradient>
		<path class="st0" d="M159.1,10l-26,26c26.8,26.8,26.8,70.3,0,97.1c-26.8,26.8-70.3,26.8-97.1,0l0,0l-26,26
			c41.2,41.2,107.9,41.2,149.1,0C200.3,117.9,200.3,51.2,159.1,10z"/>
		<linearGradient id="SVGID_2_" gradientUnits="userSpaceOnUse" x1="77.0952" y1="123.4697" x2="77.0952" y2="33.4673">
			<stop  offset="0" style="stop-color:#034D7F"/>
			<stop  offset="1" style="stop-color:#1D99D6"/>
		</linearGradient>
		<path class="st1" d="M122.1,78.5c0,24.9-20.1,45-45,45c-24.9,0-45-20.1-45-45c0-24.9,20.2-45,45-45
			C101.9,33.5,122.1,53.6,122.1,78.5z"/>
	</g>
</g>
</svg>
